<?xml version="1.0" encoding="UTF-8"?>
<svg width="22px" height="22px" viewBox="0 0 22 22" version="1.1" xmlns="http://www.w3.org/2000/svg" xmlns:xlink="http://www.w3.org/1999/xlink">
    <title>customers</title>
    <g id="Page-1" stroke="none" stroke-width="1" fill="none" fill-rule="evenodd">
        <g id="customers" transform="translate(1.000000, 1.000000)" fill="#FFFFFF" fill-rule="nonzero">
            <path d="M13.0006,20.7498 L7.00063,20.7498 C5.68063,20.7498 4.58063,20.6198 3.65063,20.3398 C3.31063,20.2398 3.09063,19.9098 3.11063,19.5598 C3.36063,16.5698 6.39063,14.2197 10.0006,14.2197 C13.6106,14.2197 16.6306,16.5598 16.8906,19.5598 C16.9206,19.9198 16.7006,20.2398 16.3506,20.3398 C15.4206,20.6198 14.3206,20.7498 13.0006,20.7498 Z M4.72063,19.0598 C5.38063,19.1898 6.13063,19.2498 7.00063,19.2498 L13.0006,19.2498 C13.8706,19.2498 14.6206,19.1898 15.2806,19.0598 C14.7506,17.1398 12.5606,15.7197 10.0006,15.7197 C7.44063,15.7197 5.25063,17.1398 4.72063,19.0598 Z" id="Vector"></path>
            <path d="M13,-0.75 C18.4142136,-0.75 20.75,1.58578644 20.75,7 L20.75,13 C20.75,17.1292953 19.3993058,19.4768019 16.3442882,20.3416414 C15.8906466,20.470062 15.432422,20.1530253 15.3926706,19.6832356 C15.2074656,17.4944493 12.8741972,15.72 10,15.72 C7.12580278,15.72 4.79253442,17.4944493 4.60732942,19.6832356 C4.56757798,20.1530253 4.10935343,20.470062 3.65571181,20.3416414 C0.600694231,19.4768019 -0.75,17.1292953 -0.75,13 L-0.75,7 C-0.75,1.58578644 1.58578644,-0.75 7,-0.75 L13,-0.75 Z M13,0.75 L7,0.75 C2.41421356,0.75 0.75,2.41421356 0.75,7 L0.75,13 C0.75,16.0927926 1.51474464,17.7968027 3.27736338,18.6109498 L3.287,18.614 L3.31122177,18.5310635 C4.06143527,16.0860029 6.67574701,14.3152252 9.74977482,14.2237196 L10,14.22 C13.1815772,14.22 15.9182887,16.0199201 16.6887782,18.5310635 L16.712,18.614 L16.7226366,18.6109498 C18.4244754,17.8248768 19.1960725,16.2092524 19.2472625,13.3150105 L19.25,13 L19.25,7 C19.25,2.41421356 17.5857864,0.75 13,0.75 Z M10,4.25 C12.3942073,4.25 14.33,6.18580017 14.33,8.58 C14.33,10.9754792 12.3929581,12.92 10,12.92 C7.60704192,12.92 5.67,10.9754792 5.67,8.58 C5.67,6.18580017 7.6057927,4.25 10,4.25 Z M10,5.75 C8.43422112,5.75 7.17,7.014226 7.17,8.58 C7.17,10.1483432 8.43676577,11.42 10,11.42 C11.5632342,11.42 12.83,10.1483432 12.83,8.58 C12.83,7.014226 11.5657789,5.75 10,5.75 Z" id="Vector_2"></path>
            <path d="M9.9999,12.92 C7.60992,12.92 5.66992,10.97 5.66992,8.58 C5.66992,6.19002 7.60992,4.25 9.9999,4.25 C12.3899,4.25 14.3299,6.19002 14.3299,8.58 C14.3299,10.97 12.3899,12.92 9.9999,12.92 Z M9.9999,5.75 C8.4399,5.75 7.16992,7.02002 7.16992,8.58 C7.16992,10.15 8.4399,11.42 9.9999,11.42 C11.5599,11.42 12.8299,10.15 12.8299,8.58 C12.8299,7.02002 11.5599,5.75 9.9999,5.75 Z" id="Vector_3"></path>
        </g>
    </g>
</svg>