<?xml version="1.0" encoding="UTF-8"?>
<svg width="22px" height="22px" viewBox="0 0 22 22" version="1.1" xmlns="http://www.w3.org/2000/svg" xmlns:xlink="http://www.w3.org/1999/xlink">
    <title>dashboard</title>
    <g id="Page-1" stroke="none" stroke-width="1" fill="none" fill-rule="evenodd">
        <g id="dashboard" transform="translate(1.000000, 1.000000)" fill="#9197B3" fill-rule="nonzero">
            <path d="M13,-0.75 C18.4142136,-0.75 20.75,1.58578644 20.75,7 L20.75,13 C20.75,18.4142136 18.4142136,20.75 13,20.75 L7,20.75 C1.58578644,20.75 -0.75,18.4142136 -0.75,13 L-0.75,7 C-0.75,1.58578644 1.58578644,-0.75 7,-0.75 L13,-0.75 Z M13,0.75 L7,0.75 C2.41421356,0.75 0.75,2.41421356 0.75,7 L0.75,13 C0.75,17.5857864 2.41421356,19.25 7,19.25 L13,19.25 C17.5857864,19.25 19.25,17.5857864 19.25,13 L19.25,7 C19.25,2.41421356 17.5857864,0.75 13,0.75 Z" id="Vector"></path>
            <path d="M7.85966991,5.19967991 C9.77229159,3.28705824 12.8859071,3.28705824 14.8086857,5.19804057 C16.7232258,7.10076259 16.7232258,10.2156314 14.8119594,12.1386958 C13.6181003,13.3325599 11.928165,13.8136533 10.3288446,13.4746738 L10.3257425,13.47301 L8.05447451,15.7358085 C7.73901335,16.0687953 7.20941702,16.2653205 6.74346596,16.247432 L6.59088721,16.2334209 L5.39698395,16.0742084 C4.66508277,15.9827208 4.03995503,15.3469976 3.92658907,14.6091228 L3.76873123,13.4240429 C3.69343215,12.9345989 3.89566599,12.3329532 4.24967991,11.9596699 L6.52674249,9.68101 C6.21058615,8.14960835 6.62828817,6.54783517 7.69483252,5.37268929 L7.85966991,5.19967991 Z M13.7513042,6.26196935 C12.4140929,4.93296176 10.2477084,4.93296176 8.92033243,6.26033774 C8.01709121,7.16358695 7.70552279,8.48264084 8.07684426,9.68943561 C8.15854346,9.95495802 8.08677952,10.2438906 7.89034009,10.4403301 L5.32447451,13.0058085 C5.29562753,13.0362581 5.24835566,13.1768919 5.25343093,13.2108772 L5.41128877,14.3959571 C5.42259974,14.4694784 5.53051918,14.579227 5.58913279,14.5865791 L6.7999215,14.7480974 C6.83358349,14.7530844 6.95778977,14.7123781 6.98070566,14.6886461 L9.57069566,12.1086461 C9.7683623,11.9117419 10.0589923,11.8408369 10.3251301,11.9245865 C11.522388,12.301346 12.8419612,11.9873786 13.7496699,11.0796699 C15.0767742,9.74436862 15.0767742,7.57925741 13.7513042,6.26196935 Z" id="Vector_2"></path>
            <path d="M7.072754,12.8865839 C7.36735158,12.595405 7.84221723,12.5981764 8.13339611,12.892774 L8.98341611,13.752774 C9.27459499,14.0473716 9.27182358,14.5222372 8.977226,14.8134161 C8.68262842,15.104595 8.20776277,15.1018236 7.91658389,14.807226 L7.06656389,13.947226 C6.77538501,13.6526284 6.77815642,13.1777628 7.072754,12.8865839 Z" id="Vector_3"></path>
            <path d="M11.4035,7.7 C11.9557847,7.7 12.4035,8.14771525 12.4035,8.7 C12.4035,9.25228475 11.9557847,9.7 11.4035,9.7 C10.8422153,9.7 10.3945,9.25228475 10.3945,8.7 C10.3945,8.14771525 10.8422153,7.7 11.3945,7.7 L11.4035,7.7 Z" id="Vector_4"></path>
        </g>
    </g>
</svg>