<?xml version="1.0" encoding="UTF-8"?>
<svg width="22px" height="21px" viewBox="0 0 22 21" version="1.1" xmlns="http://www.w3.org/2000/svg" xmlns:xlink="http://www.w3.org/1999/xlink">
    <title>income</title>
    <g id="Page-1" stroke="none" stroke-width="1" fill="none" fill-rule="evenodd">
        <g id="income" transform="translate(1.000000, 1.000000)" fill="#9197B3" fill-rule="nonzero">
            <path d="M8.0016,13.3604 C8.0016,12.3604 9.5016,12.3604 9.5016,13.3604 L9.5016,15.3904 C9.5016,17.5482155 7.54596398,19.2504 5.18158,19.2504 C2.81581859,19.2504 0.85156,17.5472987 0.85156,15.3904 L0.85156,13.3604 C0.85156,12.3604 2.35156,12.3604 2.35156,13.3604 C2.35156,14.5930704 3.54362869,15.5504 5.18158,15.5504 C6.80609986,15.5504 8.0016,14.5861453 8.0016,13.3604 Z M7.75356,16.3534 L7.70233204,16.3856939 C6.99347717,16.8088846 6.1233017,17.0504 5.18158,17.0504 C4.23497423,17.0504 3.36221085,16.8102278 2.65201311,16.388136 L2.60256,16.3564 C3.02481917,17.1295077 3.92468396,17.6888879 5.00067034,17.745645 L5.18158,17.7504 C6.33522208,17.7504 7.30872931,17.1734024 7.74930353,16.363378 L7.75356,16.3534 Z" id="Vector"></path>
            <path d="M5.16003,6.76 C6.29903742,6.76 7.37052564,7.15475189 8.17018113,7.84381973 C9.01143437,8.54482162 9.5001,9.53886076 9.5001,10.61 C9.5001,11.2330898 9.33029192,11.8274181 9.01086471,12.3597699 C8.27256368,13.5735046 6.8095943,14.3 5.17004,14.3 C3.53798353,14.3 2.07232902,13.5688378 1.32691031,12.3558718 C1.00986048,11.8274554 0.84009,11.2331216 0.84009,10.61 C0.84009,9.55209419 1.31648491,8.57281078 2.13557766,7.85610522 C2.93872246,7.15180901 4.01068683,6.76 5.16003,6.76 Z M5.16003,8.26 C4.36963141,8.26 3.65018975,8.52295997 3.12394846,8.98443252 C2.61943741,9.42587968 2.34009,10.0001098 2.34009,10.61 C2.34009,10.9569753 2.43389595,11.2853719 2.60900216,11.5772984 C3.06223978,12.3147697 4.03491029,12.8 5.17004,12.8 C6.31212725,12.8 7.27961063,12.3195578 7.72698031,11.5841282 C7.90627172,11.2853092 8.0001,10.9569102 8.0001,10.61 C8.0001,9.99481557 7.71680802,9.41854563 7.20052823,8.98820652 C6.66477811,8.52663718 5.94103592,8.26 5.16003,8.26 Z" id="Vector_2"></path>
            <path d="M5.18158,6.75 C6.32058742,6.75 7.39207564,7.14475189 8.20549283,7.8455713 C9.02355531,8.56138716 9.5016,9.55068096 9.5016,10.61 L9.5016,13.36 C9.5016,15.5007528 7.5761985,17.05 5.18158,17.05 C2.78946595,17.05 0.85156,15.4929662 0.85156,13.36 L0.85156,10.61 C0.85156,8.45047258 2.809008,6.75 5.18158,6.75 Z M5.18158,8.25 C3.5941888,8.25 2.35156,9.32949545 2.35156,10.61 L2.35156,13.36 C2.35156,14.5834439 3.55454916,15.55 5.18158,15.55 C6.81076784,15.55 8.0016,14.5918136 8.0016,13.36 L8.0016,10.61 C8.0016,9.99710257 7.71964948,9.41361757 7.22207823,8.97820652 C6.68632811,8.51663718 5.96258592,8.25 5.18158,8.25 Z" id="Vector_3"></path>
            <path d="M16.92,5.69995 L19.0267686,5.70042786 C19.9874061,5.73473634 20.75,6.51316461 20.75,7.4699 L20.75,9.53 C20.75,10.4867371 19.9874049,11.2651137 19,11.2999 L17.0399,11.2999 C15.5557666,11.2999 14.2541313,10.2006715 14.1333784,8.75100682 C14.053271,7.90987969 14.3624108,7.09267303 14.9425466,6.52668749 C15.4585206,5.9967683 16.1645274,5.69995 16.92,5.69995 Z M19,7.19995 L16.92,7.19995 C16.5685418,7.19995 16.2503373,7.33372906 16.0038025,7.58658065 C15.7308958,7.85298962 15.5900897,8.22520855 15.6274093,8.61761589 C15.681748,9.26967992 16.3096003,9.7999 17.0399,9.7999 L18.9732314,9.80037786 C19.1317885,9.7947151 19.25,9.67405731 19.25,9.53 L19.25,7.4699 C19.25,7.3258215 19.1317676,7.20513415 19,7.19995 Z" id="Vector_4"></path>
            <path d="M14,-0.75 C14.3394909,-0.75 14.6091919,-0.733823333 14.8366256,-0.694990535 C17.8119184,-0.349026261 19.75,1.89679782 19.75,5 L19.75,6.45001 C19.75,6.86422356 19.4142136,7.20001 19,7.20001 L16.92,7.20001 C16.5686063,7.20001 16.2504837,7.33378134 16.0039025,7.58668065 C15.730942,7.85314217 15.5900963,8.22537721 15.6274093,8.61771589 C15.6817457,9.26975202 16.3096709,9.8 17.04,9.8 L19,9.8 C19.4142136,9.8 19.75,10.1357864 19.75,10.55 L19.75,12 C19.75,15.4142136 17.4142136,17.75 14,17.75 L11.5,17.75 C11.0857864,17.75 10.75,17.4142136 10.75,17 C10.75,16.5857864 11.0857864,16.25 11.5,16.25 L14,16.25 C16.5857864,16.25 18.25,14.5857864 18.25,12 L18.25,11.3 L17.04,11.3 C15.6152212,11.3 14.3585607,10.2869459 14.1534734,8.92333595 L14.1333784,8.75110682 C14.0532733,7.91000323 14.3624866,7.0927966 14.9426466,6.52678749 C15.4586399,5.99684847 16.1645534,5.70001 16.92,5.70001 L18.25,5.7 L18.25,5 C18.25,2.72675452 16.9625412,1.15908895 14.8483413,0.820415164 L14.6267008,0.789785443 C14.4577212,0.76162218 14.2639536,0.75 14,0.75 L5,0.75 C4.75760198,0.75 4.52569692,0.767178153 4.28338521,0.804163424 C2.10261461,1.07782876 0.75,2.66477282 0.75,5 L0.75,7 C0.75,7.41421356 0.414213562,7.75 0,7.75 C-0.414213562,7.75 -0.75,7.41421356 -0.75,7 L-0.75,5 C-0.75,1.91934382 1.15436788,-0.314940283 4.07595711,-0.681278773 C4.37430308,-0.727178153 4.68239802,-0.75 5,-0.75 L14,-0.75 Z" id="Vector_5"></path>
        </g>
    </g>
</svg>