<?xml version="1.0" encoding="UTF-8"?>
<svg width="20px" height="20px" viewBox="0 0 20 20" version="1.1" xmlns="http://www.w3.org/2000/svg" xmlns:xlink="http://www.w3.org/1999/xlink">
    <title>search</title>
    <g id="Page-1" stroke="none" stroke-width="1" fill="none" fill-rule="evenodd">
        <g id="search" transform="translate(1.000000, 1.000000)" fill="#7E7E7E" fill-rule="nonzero">
            <path d="M8,-1 C12.9705782,-1 17,3.02942873 17,8 C17,12.9705847 12.9705847,17 8,17 C3.02942873,17 -1,12.9705782 -1,8 C-1,3.02943525 3.02943525,-1 8,-1 Z M8,1 C4.13400475,1 1,4.13400475 1,8 C1,11.866008 4.13399746,15 8,15 C11.8660153,15 15,11.8660153 15,8 C15,4.13399746 11.866008,1 8,1 Z" id="Vector"></path>
            <path d="M12.9428932,12.9428932 C13.3334175,12.5523689 13.9665825,12.5523689 14.3571068,12.9428932 L18.7071068,17.2928932 C19.0976311,17.6834175 19.0976311,18.3165825 18.7071068,18.7071068 C18.3165825,19.0976311 17.6834175,19.0976311 17.2928932,18.7071068 L12.9428932,14.3571068 C12.5523689,13.9665825 12.5523689,13.3334175 12.9428932,12.9428932 Z" id="Vector_2"></path>
        </g>
    </g>
</svg>